<svg width="30" height="30" viewBox="0 0 30 30" fill="none" xmlns="http://www.w3.org/2000/svg">
<path d="M26.5576 5.62988C26.083 5.62988 25.6907 5.98257 25.6286 6.44017L25.6201 6.56738V23.4406C25.6201 23.9584 26.0399 24.3781 26.5576 24.3781C27.0322 24.3781 27.4245 24.0255 27.4865 23.5679L27.4951 23.4406V6.56738C27.4951 6.04961 27.0754 5.62988 26.5576 5.62988ZM10.9829 7.9838L10.8789 7.86605C10.4283 7.4155 9.71921 7.38091 9.22888 7.76223L9.11113 7.86623L2.86537 14.1132C2.41506 14.5637 2.38023 15.2722 2.76101 15.7626L2.86486 15.8804L9.11062 22.1346C9.59844 22.6231 10.3899 22.6237 10.8784 22.1359C11.3293 21.6856 11.3644 20.9766 10.9835 20.486L10.8796 20.3681L6.76886 16.2499L22.4951 16.25C23.1361 16.25 23.6645 15.7675 23.7367 15.1457L23.7451 15C23.7451 14.359 23.2626 13.8306 22.6409 13.7585L22.4951 13.75L6.76511 13.7499L10.8791 9.63382C11.3296 9.18317 11.3642 8.47412 10.9829 7.9838Z" fill="white"/>
</svg>
