<svg width="16" height="16" viewBox="0 0 16 16" fill="none" xmlns="http://www.w3.org/2000/svg">
<g clip-path="url(#clip0_20_1164)">
<path d="M16 8C16 3.58172 12.4182 0 8 0C3.58172 0 0 3.58172 0 8C0 12.4182 3.58172 16 8 16C12.4182 16 16 12.4182 16 8ZM10.3513 4.0365L6.75152 12.4365C6.62096 12.741 6.26827 12.8822 5.9637 12.7517C5.65911 12.6211 5.51802 12.2684 5.64854 11.9638L9.24832 3.56382C9.37888 3.25923 9.7316 3.11814 10.0362 3.24866C10.3407 3.37919 10.4818 3.73191 10.3513 4.0365ZM5.40138 6.64592L3.89691 8L5.40138 9.354C5.64769 9.57568 5.66766 9.95504 5.44598 10.2014C5.2243 10.4477 4.84493 10.4676 4.59862 10.246L2.59862 8.44592C2.47219 8.33216 2.4 8.17008 2.4 8C2.4 7.82992 2.47219 7.66776 2.59862 7.554L4.59862 5.75401C4.84493 5.53233 5.2243 5.5523 5.44598 5.79861C5.66766 6.04491 5.64769 6.42432 5.40138 6.64592ZM10.554 5.79861C10.7757 5.5523 11.155 5.53233 11.4014 5.75401L13.4014 7.554C13.5278 7.66776 13.6 7.82992 13.6 8C13.6 8.17008 13.5278 8.33216 13.4014 8.44592L11.4014 10.246C11.155 10.4676 10.7757 10.4477 10.554 10.2014C10.3323 9.95504 10.3523 9.57568 10.5986 9.354L12.1031 8L10.5986 6.64592C10.3523 6.42432 10.3323 6.04491 10.554 5.79861Z" fill="#25AA9F"/>
</g>
<defs>
<clipPath id="clip0_20_1164">
<rect width="16" height="16" fill="white"/>
</clipPath>
</defs>
</svg>
