<svg width="26" height="26" viewBox="0 0 26 26" fill="none" xmlns="http://www.w3.org/2000/svg">
<g clip-path="url(#clip0_20_1110)">
<circle cx="13" cy="13" r="13" fill="#7CC5BF"/>
<path d="M8.41968 2.64226L9.58599 2.26958C10.6789 1.92037 11.8465 2.48473 12.3146 3.58837L13.2459 5.78466C13.6519 6.74173 13.4266 7.86722 12.6891 8.56718L10.637 10.515C10.7636 11.6801 11.1552 12.8273 11.8118 13.9568C12.4685 15.0862 13.2886 16.0231 14.2722 16.7674L16.737 15.9455C17.6713 15.6339 18.6887 15.992 19.2618 16.8339L20.5968 18.7953C21.263 19.774 21.1432 21.1243 20.3165 21.9541L19.4307 22.8434C18.549 23.7286 17.2896 24.0497 16.1246 23.6863C13.3741 22.8283 10.8453 20.2812 8.53802 16.0449C6.22741 11.8024 5.41193 8.2029 6.09158 5.24648C6.37758 4.00247 7.26321 3.01178 8.41968 2.64226Z" fill="#3E3E3E"/>
</g>
<defs>
<clipPath id="clip0_20_1110">
<rect width="26" height="26" fill="white"/>
</clipPath>
</defs>
</svg>
