<svg width="16" height="16" viewBox="0 0 16 16" fill="none" xmlns="http://www.w3.org/2000/svg">
<g clip-path="url(#clip0_20_1174)">
<circle cx="8" cy="8" r="8" fill="#7CC5BF"/>
<path d="M5.18147 1.62603L5.8992 1.39669C6.57175 1.18179 7.29028 1.52909 7.57835 2.20825L8.15148 3.55982C8.40128 4.14879 8.26268 4.84139 7.80882 5.27214L6.54596 6.47081C6.62388 7.18777 6.86488 7.89377 7.26895 8.58884C7.67308 9.28384 8.17775 9.86037 8.78301 10.3184L10.2998 9.81264C10.8747 9.62091 11.5009 9.84124 11.8535 10.3594L12.6751 11.5664C13.0851 12.1686 13.0113 12.9996 12.5026 13.5102L11.9575 14.0575C11.4149 14.6022 10.6399 14.7998 9.92295 14.5762C8.23035 14.0482 6.67415 12.4808 5.25429 9.87384C3.83238 7.26304 3.33055 5.04797 3.74879 3.22863C3.92479 2.46309 4.4698 1.85343 5.18147 1.62603Z" fill="#25AA9F"/>
</g>
<defs>
<clipPath id="clip0_20_1174">
<rect width="16" height="16" fill="white"/>
</clipPath>
</defs>
</svg>
